<?xml version="1.0" encoding="UTF-8"?>
<svg xmlns="http://www.w3.org/2000/svg" viewBox="0 0 24 24" fill="#000000">
  <path d="M12 2C6.477 2 2 6.477 2 12s4.477 10 10 10 10-4.477 10-10S17.523 2 12 2zm4.5 14.5c-.828 0-1.5-.672-1.5-1.5s.672-1.5 1.5-1.5 1.5.672 1.5 1.5-.672 1.5-1.5 1.5zm-9 0c-.828 0-1.5-.672-1.5-1.5s.672-1.5 1.5-1.5 1.5.672 1.5 1.5-.672 1.5-1.5 1.5zm9-5c-.276 0-.5-.224-.5-.5V9.5c0-.276.224-.5.5-.5s.5.224.5.5V11c0 .276-.224.5-.5.5zm-9 0c-.276 0-.5-.224-.5-.5V9.5c0-.276.224-.5.5-.5s.5.224.5.5V11c0 .276-.224.5-.5.5z"/>
</svg>
